<svg version="1.1" xmlns="http://www.w3.org/2000/svg" xmlns:xlink="http://www.w3.org/1999/xlink" viewBox="-15 -14 70 70">

	<style>
		:root {width: 100px; height: 100px; fill: #000000;}
	</style>

<path d="M7.9,24.9l10.8,7.2v-6.4l-6-4L7.9,24.9z M6.8,22.3l3.4-2.3l-3.4-2.3V22.3L6.8,22.3z M21.4,32.1l10.8-7.2l-4.8-3.2l-6,4 C21.4,25.6,21.4,32.1,21.4,32.1z M20,23.3l4.9-3.3L20,16.8L15.1,20L20,23.3z M12.7,18.3l6-4V7.9L7.9,15.1L12.7,18.3z M29.8,20 l3.4,2.3v-4.6L29.8,20z M27.3,18.3l4.8-3.2L21.4,7.9v6.4L27.3,18.3z M36,15.1v9.8c0,0.5-0.2,0.9-0.6,1.1l-14.6,9.7 C20.5,35.9,20.3,36,20,36c-0.3,0-0.5-0.1-0.8-0.2L4.6,26C4.2,25.7,4,25.4,4,24.9v-9.8c0-0.5,0.2-0.9,0.6-1.1l14.6-9.8 C19.5,4.1,19.7,4,20,4c0.3,0,0.5,0.1,0.8,0.2L35.4,14C35.8,14.3,36,14.6,36,15.1z"/>

</svg>
