<svg version="1.1" xmlns="http://www.w3.org/2000/svg" xmlns:xlink="http://www.w3.org/1999/xlink" x="0px" y="0px" viewBox="0 0 256 256">

<path fill="#11245C" d="M166.1,10.2c-3.9,1-5.3,2.3-32.9,29.8c-31.3,31.3-29.9,29.6-29.9,36.3c0,5.5,0.9,7.2,8.3,14.7l6,6.1l26-26l26-26l20.5,20.8l20.6,20.7l-25.9,25.9l-25.9,25.9l6.1,6c7.5,7.3,9.1,8.2,14.7,8.3c3.2,0,4.3-0.2,6.2-1.1c1.8-0.9,8.1-6.9,29.6-28.4c30.9-30.8,30.3-30.2,30.4-36.3c0-6.7,2.1-4.2-34.8-41.2c-26.7-26.8-33.5-33.4-35.5-34.4C173.1,10.1,168.6,9.5,166.1,10.2z"/>

<path fill="#11245C" d="M155,82.9c-1,0.4-2.4,1-3.2,1.4c-0.7,0.4-16.3,15.7-34.4,33.9c-36.9,37-34.8,34.5-34.8,41.2c0,4.1,1.2,7,4.1,9.9c3,3,5.8,4.1,10.2,4.1c6.6,0,4.4,1.9,41.7-35.4c37.2-37.3,35-34.7,35-41.4c0-4.1-1.2-7.1-4.2-9.9C165.7,83,159.5,81.4,155,82.9z"/>

<path fill="#11245C" d="M71.4,103.9c-1.3,0.5-3.1,1.5-4.2,2.3c-1,0.8-13.8,13.5-28.4,28.2C9.2,164.1,10.1,163,10.1,169.1c-0.1,6.7-2.2,4.2,34.8,41.2c35.5,35.6,35,35.1,40.3,35.7c3.1,0.4,7.1-0.7,9.8-2.6c1.1-0.7,13.9-13.4,28.7-28.3c21.1-21.2,27.1-27.4,27.9-29.2c1.6-3.3,1.6-9.1,0-12.5c-1.1-2.3-12.1-14.1-13.1-14.1c-0.3,0-12.1,11.6-26.2,25.7l-25.8,25.8l-20.6-20.7l-20.7-20.6l26-26l26-26l-6.1-6c-4-3.9-6.9-6.4-8.4-7.1C79.5,103,74.6,102.7,71.4,103.9z"/>

</svg>